<svg id="beer" enable-background="new 0 0 300 300" height="512" viewBox="0 0 300 300" width="512" xmlns="http://www.w3.org/2000/svg"><circle cx="142" cy="126" fill="#edebdc" r="90"/><path d="m232.798 124-8.996-68h2.198c3.313 0 6-2.686 6-6s-2.687-6-6-6h-3.784-20.769-3.447c-3.313 0-6 2.686-6 6s2.687 6 6 6h1.86l-8.995 68c-6 0-10.865 4.864-10.865 10.865v125.109c0 4.433 3.593 8.026 8.026 8.026h47.948c4.433 0 8.026-3.593 8.026-8.026v-125.109c0-6-4.864-10.865-10.865-10.865z" fill="#a9ba5a"/><path d="m235.973 272h-47.945c-6.633 0-12.027-5.395-12.027-12.027v-125.11c0-6.969 4.82-12.832 11.301-14.434l8.043-60.789c-4.232-1.163-7.345-5.046-7.345-9.64 0-5.516 4.484-10 10-10h28c5.516 0 10 4.484 10 10 0 4.711-3.273 8.672-7.668 9.727l8.016 60.621c6.656 1.472 11.652 7.422 11.652 14.515v125.109c0 6.633-5.395 12.028-12.027 12.028zm-37.973-224c-1.102 0-2 .898-2 2s.898 2 2 2h1.859c1.152 0 2.25.496 3.008 1.363.762.867 1.109 2.02.957 3.16l-8.996 68c-.262 1.988-1.957 3.477-3.965 3.477-3.785 0-6.863 3.078-6.863 6.863v125.109c0 2.223 1.805 4.027 4.027 4.027h47.945c2.223 0 4.027-1.805 4.027-4.027v-125.109c0-3.785-3.078-6.863-6.863-6.863-2.008 0-4.043-1.488-4.305-3.477l-8.992-68c-.152-1.141.195-2.293.957-3.16.758-.867 1.855-1.363 3.008-1.363h2.196c1.102 0 2-.898 2-2s-.898-2-2-2z" fill="#4c241d"/><path d="m228 44h-32v-4.604c0-4.085 3.312-7.396 7.396-7.396h17.207c4.085 0 7.396 3.312 7.396 7.396v4.604z" fill="#9dc1e4"/><path d="m228 48h-32c-2.211 0-4-1.789-4-4v-4.602c0-6.285 5.113-11.398 11.398-11.398h17.203c6.286 0 11.399 5.113 11.399 11.398v4.602c0 2.211-1.789 4-4 4zm-28-8h24v-.602c0-1.875-1.523-3.398-3.398-3.398h-17.203c-1.875 0-3.398 1.523-3.398 3.398v.602z" fill="#4c241d"/><path d="m212 236c-11.046 0-20-8.954-20-20v-48c0-11.046 8.954-20 20-20 11.046 0 20 8.954 20 20v48c0 11.046-8.954 20-20 20z" fill="#fff"/><path d="m212 240c-13.234 0-24-10.766-24-24v-48c0-13.234 10.766-24 24-24s24 10.766 24 24v48c0 13.234-10.766 24-24 24zm0-88c-8.824 0-16 7.176-16 16v48c0 8.824 7.176 16 16 16s16-7.176 16-16v-48c0-8.824-7.176-16-16-16z" fill="#4c241d"/><path d="m180 184h64v20h-64z" fill="#6b4f5b"/><path d="m244 208h-64c-2.211 0-4-1.789-4-4v-20c0-2.211 1.789-4 4-4h64c2.211 0 4 1.789 4 4v20c0 2.211-1.789 4-4 4zm-60-8h56v-12h-56z" fill="#4c241d"/><circle cx="212" cy="168" fill="#f53e28" r="6.627"/><path d="m200.808 108h-84.923s-2.456 11.119-2.049 28h89.021c.407-16.881-2.049-28-2.049-28z" fill="#bf7e68"/><path d="m202.855 140h-89.02c-2.172 0-3.945-1.734-4-3.902-.41-17.172 2.035-28.484 2.141-28.961.406-1.832 2.027-3.137 3.906-3.137h84.926c1.875 0 3.5 1.305 3.906 3.137.105.473 2.555 11.789 2.141 28.961-.054 2.172-1.828 3.902-4 3.902zm-85.062-8h81.109c-.016-9.137-.859-16.191-1.445-20h-78.219c-.586 3.809-1.429 10.863-1.445 20z" fill="#4c241d"/><path d="m183.611 219.191c-.311-7.308 1.182-14.632 4.402-21.19 11.224-22.861 14.441-45.264 14.844-62.001h-89.021c.403 16.737 3.62 39.14 14.844 62.001 3.22 6.559 4.713 13.883 4.402 21.19-.219 5.156-1.16 11.034-3.605 16.65-1.789 4.108-2.976 8.453-2.976 12.934v11.628c0 4.195 3.401 7.596 7.596 7.596h48.501c4.195 0 7.596-3.401 7.596-7.596v-11.628c0-4.481-1.187-8.826-2.976-12.934-2.448-5.615-3.388-11.494-3.607-16.65z" fill="#fff"/><path d="m182.598 272h-48.5c-6.395 0-11.598-5.203-11.598-11.598v-11.625c0-4.668 1.082-9.422 3.309-14.531 1.934-4.441 3.035-9.562 3.277-15.223.281-6.695-1.102-13.355-3.996-19.262-11.926-24.289-14.875-48.027-15.254-63.664-.023-1.078.387-2.121 1.137-2.891.754-.773 1.785-1.207 2.863-1.207h89.02c1.078 0 2.109.434 2.863 1.207.75.77 1.16 1.812 1.137 2.891-.379 15.641-3.328 39.383-15.254 63.664-2.895 5.906-4.277 12.566-3.996 19.262.242 5.66 1.344 10.781 3.277 15.223 2.227 5.109 3.309 9.863 3.309 14.531v11.625c-.001 6.395-5.2 11.598-11.594 11.598zm-64.61-132c.762 14.711 3.992 35.277 14.281 56.238 3.484 7.098 5.148 15.094 4.809 23.121-.281 6.648-1.605 12.73-3.934 18.082-1.781 4.082-2.645 7.789-2.645 11.336v11.625c0 1.984 1.613 3.598 3.598 3.598h48.5c1.98 0 3.594-1.613 3.594-3.598v-11.625c0-3.547-.863-7.254-2.645-11.336-2.328-5.352-3.652-11.434-3.934-18.082-.34-8.027 1.324-16.023 4.809-23.121 10.289-20.957 13.52-41.523 14.281-56.238z" fill="#4c241d"/><path d="m200 100.77c0-7.329-6.268-13.27-14-13.27-3.17 0-6.061 1.036-8.407 2.719 0-.022.007-.043.007-.065 0-7.329-6.268-13.269-14-13.269-6.039 0-11.138 3.644-13.102 8.723-2.477-2.101-5.712-3.415-9.298-3.415-6.972 0-12.708 4.845-13.777 11.168-.94-.345-1.953-.553-3.023-.553-4.639 0-8.4 3.564-8.4 7.962v11.23h48v10c0 3.313 2.687 6 6 6s6-2.687 6-6v-10h24z" fill="#ffce56"/><g fill="#4c241d"><path d="m170 132c-5.516 0-10-4.484-10-10v-6h-44c-2.211 0-4-1.789-4-4v-11.23c0-6.594 5.562-11.961 12.398-11.961.074 0 .148 0 .223.004 2.727-6.336 9.164-10.621 16.578-10.621 2.754 0 5.453.621 7.91 1.793 3.336-4.371 8.703-7.102 14.492-7.102 7.797 0 14.449 4.777 16.945 11.441 1.754-.543 3.586-.824 5.453-.824 9.926 0 18 7.746 18 17.27v11.23c0 2.211-1.789 4-4 4h-20v6c.001 5.516-4.483 10-9.999 10zm-50-24h44c2.211 0 4 1.789 4 4v10c0 1.102.898 2 2 2s2-.898 2-2v-10c0-2.211 1.789-4 4-4h20v-7.23c0-5.109-4.484-9.27-10-9.27-2.18 0-4.281.68-6.074 1.969-1.219.871-2.832.996-4.156.309-1.336-.684-2.176-2.059-2.176-3.559 0-.07.004-.145.008-.219-.09-5.043-4.543-9.117-10-9.117-4.18 0-7.949 2.48-9.375 6.168-.465 1.207-1.488 2.117-2.746 2.434-1.25.336-2.582.016-3.574-.824-1.875-1.594-4.258-2.469-6.707-2.469-4.93 0-9.066 3.297-9.832 7.836-.199 1.172-.91 2.195-1.938 2.793-1.031.594-2.262.703-3.387.293-3.023-1.114-6.043.988-6.043 3.656z"/><path d="m172 256h-28c-2.211 0-4-1.789-4-4s1.789-4 4-4h28c2.211 0 4 1.789 4 4s-1.789 4-4 4z"/></g></svg>