<svg id="coffee" enable-background="new 0 0 300 300" height="512" viewBox="0 0 300 300" width="512" xmlns="http://www.w3.org/2000/svg"><circle cx="126.891" cy="116" fill="#edebdc" r="90"/><path d="m229.094 270h-98.106l-14.81-152.055h127.726z" fill="#fff"/><path d="m229.094 274h-98.105c-2.059 0-3.781-1.562-3.98-3.613l-14.811-152.055c-.109-1.121.26-2.238 1.018-3.074s1.834-1.312 2.963-1.312h127.727c1.129 0 2.205.477 2.963 1.312s1.127 1.953 1.018 3.074l-14.811 152.055c-.201 2.051-1.924 3.613-3.982 3.613zm-94.477-8h90.848l14.031-144.055h-118.91z" fill="#4c241d"/><path d="m232.99 230 8.182-84h-122.261l8.181 84z" fill="#bf7e68"/><path d="m232.99 234h-105.898c-2.059 0-3.781-1.562-3.98-3.613l-8.182-84c-.109-1.121.26-2.238 1.018-3.074s1.833-1.313 2.962-1.313h122.262c1.129 0 2.205.477 2.963 1.312s1.127 1.953 1.018 3.074l-8.182 84c-.2 2.052-1.922 3.614-3.981 3.614zm-102.269-8h98.641l7.402-76h-113.446z" fill="#4c241d"/><path d="m234.781 90h-109.48v-24l103.398-18z" fill="#fff"/><path d="m234.781 94h-109.48c-2.209 0-4-1.789-4-4v-24c0-1.945 1.398-3.605 3.314-3.941l103.398-18c1.066-.18 2.158.066 3.033.703.875.633 1.457 1.594 1.611 2.664l6.082 42c.166 1.148-.176 2.312-.936 3.191s-1.862 1.383-3.022 1.383zm-105.48-8h100.859l-4.83-33.352-96.029 16.715z" fill="#4c241d"/><path d="m125.301 157.479c-1.786 0-3.525.185-5.226.48l5.874 60.309c16.493-.349 29.763-13.802 29.763-30.378.001-16.795-13.615-30.411-30.411-30.411z" fill="#a9ba5a"/><path d="m125.947 222.27c-2.053 0-3.779-1.559-3.979-3.613l-5.873-60.309c-.203-2.082 1.232-3.969 3.293-4.328 2.082-.363 4.016-.539 5.912-.539 18.975 0 34.412 15.438 34.412 34.41 0 18.566-15.109 33.988-33.68 34.379-.026 0-.056 0-.085 0zm-1.508-60.774 5.105 52.438c12.516-2.055 22.168-13.047 22.168-26.043.001-14.848-12.167-26.996-27.273-26.395z" fill="#4c241d"/><path d="m259.11 126h-158.137l9.036-47.589h140.065z" fill="#fff"/><path d="m259.109 130h-158.136c-1.191 0-2.32-.531-3.08-1.449-.762-.918-1.072-2.125-.85-3.297l9.037-47.59c.357-1.887 2.008-3.254 3.93-3.254h140.064c1.922 0 3.572 1.367 3.93 3.254l9.035 47.59c.223 1.172-.088 2.379-.85 3.297-.759.918-1.888 1.449-3.08 1.449zm-153.306-8h148.477l-7.518-39.59h-133.44z" fill="#4c241d"/></svg>