<svg id="meal3" enable-background="new 0 0 300 300" height="512" viewBox="0 0 300 300" width="512" xmlns="http://www.w3.org/2000/svg"><circle cx="117.238" cy="124" fill="#edebdc" r="90"/><path d="m159.238 86h60v154.471h-60z" fill="#e66353"/><path d="m219.238 244.469h-60c-2.211 0-4-1.789-4-4v-154.469c0-2.211 1.789-4 4-4h60c2.211 0 4 1.789 4 4v154.469c0 2.211-1.789 4-4 4zm-56-8h52v-146.469h-52z" fill="#4c241d"/><path d="m167.238 70h44v16h-44z" fill="#e66353"/><path d="m211.238 90h-44c-2.211 0-4-1.789-4-4v-16c0-2.211 1.789-4 4-4h44c2.211 0 4 1.789 4 4v16c0 2.211-1.789 4-4 4zm-40-8h36v-8h-36z" fill="#4c241d"/><path d="m91.238 109.863c-2.209 0-4-1.789-4-4v-38.164c0-1.383.715-2.668 1.891-3.398l28.504-17.699c1.871-1.16 4.34-.586 5.508 1.289 1.166 1.875.588 4.344-1.289 5.508l-26.614 16.527v35.938c0 2.21-1.791 3.999-4 3.999z" fill="#4c241d"/><path d="m118.894 258h-57.574l-11.098-140.978h79.77z" fill="#c1dbdc"/><path d="m118.894 262h-57.574c-2.088 0-3.824-1.605-3.988-3.688l-11.098-140.976c-.086-1.109.293-2.207 1.051-3.027s1.822-1.285 2.938-1.285h79.77c1.115 0 2.18.465 2.938 1.285s1.137 1.918 1.051 3.027l-11.098 140.977c-.165 2.082-1.902 3.687-3.99 3.687zm-53.877-8h50.18l10.467-132.977h-71.113z" fill="#4c241d"/><path d="m39.238 106h104v16h-104z" fill="#fff"/><path d="m143.238 126h-104c-2.209 0-4-1.789-4-4v-16c0-2.211 1.791-4 4-4h104c2.211 0 4 1.789 4 4v16c0 2.211-1.789 4-4 4zm-100-8h96v-8h-96z" fill="#4c241d"/><path d="m122.593 206 3.33-40h-71.631l3.329 40z" fill="#fff"/><path d="m122.594 210h-64.973c-2.08 0-3.814-1.594-3.986-3.668l-3.33-40c-.092-1.113.285-2.219 1.043-3.039.758-.824 1.824-1.293 2.943-1.293h71.633c1.119 0 2.186.469 2.943 1.293.758.82 1.135 1.926 1.043 3.039l-3.33 40c-.172 2.074-1.906 3.668-3.986 3.668zm-61.291-8h57.609l2.664-32h-62.937z" fill="#4c241d"/><path d="m199.238 70h-20l5.626-36h8.748z" fill="#e66353"/><path d="m199.238 74h-20c-1.168 0-2.277-.512-3.039-1.398s-1.094-2.062-.914-3.219l5.625-36c.305-1.949 1.98-3.383 3.953-3.383h8.75c1.973 0 3.648 1.434 3.953 3.383l5.625 36c.18 1.156-.152 2.332-.914 3.219s-1.871 1.398-3.039 1.398zm-15.328-8h10.656l-4.375-28h-1.906z" fill="#4c241d"/><path d="m191.238 202h-116c0-28.719 23.281-52 52-52h12c28.719 0 52 23.281 52 52z" fill="#bf7e68"/><path d="m191.238 206h-116c-2.209 0-4-1.789-4-4 0-30.879 25.121-56 56-56h12c30.879 0 56 25.121 56 56 0 2.211-1.789 4-4 4zm-111.834-8h107.67c-2.039-24.602-22.715-44-47.836-44h-12c-25.119 0-45.795 19.398-47.834 44z" fill="#4c241d"/><path d="m175.003 258.235h-79.53c-8.966 0-16.235-7.269-16.235-16.235h112c0 8.967-7.269 16.235-16.235 16.235z" fill="#bf7e68"/><path d="m175.004 262.234h-79.532c-11.158 0-20.234-9.078-20.234-20.234 0-2.211 1.791-4 4-4h112c2.211 0 4 1.789 4 4 0 11.156-9.078 20.234-20.234 20.234zm-91.094-16.234c1.66 4.789 6.217 8.234 11.562 8.234h79.531c5.348 0 9.902-3.445 11.562-8.234z" fill="#4c241d"/><path d="m87.238 230h88v12h-88z" fill="#e66353"/><path d="m175.238 246h-88c-2.209 0-4-1.789-4-4v-12c0-2.211 1.791-4 4-4h88c2.211 0 4 1.789 4 4v12c0 2.211-1.789 4-4 4zm-84-8h80v-4h-80z" fill="#4c241d"/><path d="m87.238 214h92v16h-92z" fill="#ffce56"/><path d="m179.238 234h-92c-2.209 0-4-1.789-4-4v-16c0-2.211 1.791-4 4-4h92c2.211 0 4 1.789 4 4v16c0 2.211-1.789 4-4 4zm-88-8h84v-8h-84z" fill="#4c241d"/><path d="m87.238 202h88v15.529h-88z" fill="#a9ba5a"/><path d="m175.238 221.531h-88c-2.209 0-4-1.789-4-4v-15.531c0-2.211 1.791-4 4-4h88c2.211 0 4 1.789 4 4v15.531c0 2.211-1.789 4-4 4zm-84-8h80v-7.531h-80z" fill="#4c241d"/><path d="m195.238 126h12v68h-12z" fill="#ffce56"/><path d="m207.238 198h-12c-2.211 0-4-1.789-4-4v-68c0-2.211 1.789-4 4-4h12c2.211 0 4 1.789 4 4v68c0 2.211-1.789 4-4 4zm-8-8h4v-60h-4z" fill="#4c241d"/><path d="m227.238 142h12v68h-12z" fill="#ffce56" transform="matrix(.92 .392 -.392 .92 87.665 -77.347)"/><path d="m225.43 213.629c-.523 0-1.055-.102-1.566-.32l-11.039-4.703c-.977-.414-1.75-1.203-2.145-2.188s-.387-2.086.031-3.059l26.656-62.555c.867-2.039 3.211-2.98 5.246-2.113l11.039 4.703c.977.414 1.75 1.203 2.145 2.188.395.984.387 2.086-.031 3.059l-26.656 62.555c-.649 1.523-2.126 2.433-3.68 2.433zm-5.793-10.817 3.68 1.57 23.523-55.195-3.68-1.57z" fill="#4c241d"/><path d="m211.238 126h12v68h-12z" fill="#ffce56" transform="matrix(.969 .246 -.246 .969 45.988 -48.485)"/><path d="m214.699 198.434c-.328 0-.66-.039-.984-.121l-11.633-2.953c-2.141-.547-3.438-2.723-2.895-4.863l16.711-65.914c.262-1.027.922-1.91 1.832-2.453s2-.703 3.031-.441l11.633 2.953c2.141.547 3.438 2.723 2.895 4.863l-16.711 65.914c-.262 1.027-.922 1.91-1.832 2.453-.625.37-1.332.562-2.047.562zm-6.773-9.848 3.879.984 14.746-58.156-3.879-.984z" fill="#4c241d"/><path d="m243.238 138h12v68h-12z" fill="#ffce56" transform="matrix(.911 .414 -.414 .911 93.442 -87.675)"/><path d="m240.637 209.438c-.551 0-1.113-.113-1.648-.359l-10.926-4.961c-.969-.438-1.719-1.242-2.094-2.234-.371-.992-.336-2.094.105-3.059l28.121-61.914c.91-2.012 3.281-2.918 5.293-1.988l10.926 4.961c.969.438 1.719 1.242 2.094 2.234.371.992.336 2.094-.105 3.059l-28.121 61.914c-.669 1.475-2.122 2.347-3.645 2.347zm-5.625-10.95 3.641 1.652 24.813-54.629-3.641-1.652z" fill="#4c241d"/><path d="m183.238 142h12v68h-12z" fill="#ffce56" transform="matrix(-.92 .392 -.392 -.92 432.325 263.727)"/><path d="m197.047 213.629c-1.555 0-3.031-.91-3.68-2.434l-26.656-62.555c-.418-.973-.426-2.074-.031-3.059s1.168-1.773 2.145-2.188l11.039-4.703c2.031-.867 4.379.074 5.246 2.113l26.656 62.555c.418.973.426 2.074.031 3.059s-1.168 1.773-2.145 2.188l-11.039 4.703c-.512.219-1.043.321-1.566.321zm-21.41-64.441 23.523 55.195 3.68-1.57-23.523-55.195z" fill="#4c241d"/><path d="m227.238 150h12v68h-12z" fill="#ffce56" transform="matrix(.989 -.15 .15 .989 -24.919 36.993)"/><path d="m232.394 222.516c-.848 0-1.68-.27-2.375-.781-.852-.629-1.422-1.57-1.578-2.621l-10.18-67.234c-.332-2.184 1.172-4.223 3.355-4.551l11.867-1.797c1.051-.164 2.113.105 2.973.734.852.629 1.422 1.57 1.578 2.621l10.18 67.234c.332 2.184-1.172 4.223-3.355 4.551l-11.867 1.797c-.199.031-.398.047-.598.047zm-5.625-67.879 8.98 59.324 3.957-.598-8.98-59.324z" fill="#4c241d"/><path d="m183.238 142h12v68h-12z" fill="#ffce56" transform="matrix(-.989 -.15 .15 -.989 349.994 378.348)"/><path d="m190.082 214.516c-.199 0-.398-.016-.598-.047l-11.867-1.797c-2.184-.328-3.688-2.367-3.355-4.551l10.18-67.234c.156-1.051.727-1.992 1.578-2.621.859-.633 1.93-.895 2.973-.734l11.867 1.797c2.184.328 3.688 2.367 3.355 4.551l-10.18 67.234c-.156 1.051-.727 1.992-1.578 2.621-.695.511-1.527.781-2.375.781zm-7.313-9.153 3.957.598 8.98-59.324-3.957-.598z" fill="#4c241d"/><path d="m163.238 142h12v68h-12z" fill="#ffce56" transform="matrix(-.911 .414 -.414 -.911 396.111 266.256)"/><path d="m177.84 213.438c-1.523 0-2.977-.871-3.645-2.348l-28.121-61.914c-.441-.965-.477-2.066-.105-3.059.375-.992 1.125-1.797 2.094-2.234l10.926-4.961c2.016-.926 4.383-.023 5.293 1.988l28.121 61.914c.441.965.477 2.066.105 3.059-.375.992-1.125 1.797-2.094 2.234l-10.926 4.961c-.535.246-1.098.36-1.648.36zm-22.828-63.926 24.812 54.629 3.641-1.652-24.812-54.629z" fill="#4c241d"/><path d="m240.25 266h-68.495l-11.635-76h91.765z" fill="#f53e28"/><path d="m240.25 270h-68.496c-1.977 0-3.656-1.441-3.953-3.395l-11.633-76c-.176-1.152.16-2.324.918-3.211.762-.887 1.867-1.395 3.035-1.395h91.766c1.168 0 2.273.508 3.035 1.395.758.887 1.094 2.059.918 3.211l-11.637 76c-.297 1.954-1.977 3.395-3.953 3.395zm-65.063-8h61.629l10.41-68h-82.445z" fill="#4c241d"/><circle cx="205.238" cy="228" fill="#fff" r="14"/><g fill="#4c241d"><path d="m205.238 246c-9.926 0-18-8.074-18-18s8.074-18 18-18 18 8.074 18 18-8.074 18-18 18zm0-28c-5.516 0-10 4.484-10 10s4.484 10 10 10 10-4.484 10-10-4.484-10-10-10z"/><path d="m99.242 190c-1.469 0-2.881-.809-3.582-2.211-.988-1.977-.188-4.379 1.789-5.367l8-4c1.982-.984 4.381-.184 5.367 1.789.988 1.977.188 4.379-1.789 5.367l-8 4c-.574.285-1.185.422-1.785.422z"/><path d="m123.234 174c-.6 0-1.211-.137-1.785-.422l-8-4c-1.977-.988-2.777-3.391-1.789-5.367.986-1.977 3.385-2.773 5.367-1.789l8 4c1.977.988 2.777 3.391 1.789 5.367-.701 1.402-2.113 2.211-3.582 2.211z"/><path d="m123.234 194c-.6 0-1.211-.137-1.785-.422-1.977-.988-2.777-3.391-1.789-5.367l4-8c.986-1.973 3.383-2.773 5.367-1.789 1.977.988 2.777 3.391 1.789 5.367l-4 8c-.701 1.402-2.113 2.211-3.582 2.211z"/><path d="m147.234 174c-.602 0-1.211-.137-1.785-.422l-8-4c-1.977-.988-2.777-3.391-1.789-5.367s3.391-2.766 5.367-1.789l8 4c1.977.988 2.777 3.391 1.789 5.367-.703 1.402-2.113 2.211-3.582 2.211z"/><path d="m149.515 191.301c-.383 0-.777-.055-1.164-.172l-8.555-2.602c-2.113-.645-3.305-2.879-2.662-4.992.641-2.109 2.877-3.297 4.99-2.664l8.555 2.602c2.113.645 3.305 2.879 2.664 4.992-.527 1.726-2.113 2.836-3.828 2.836z"/></g></svg>