<svg id="sushi2" enable-background="new 0 0 300 300" height="512" viewBox="0 0 300 300" width="512" xmlns="http://www.w3.org/2000/svg"><circle cx="128" cy="128" fill="#edebdc" r="90"/><path d="m243.909 166h-59.819c-7.782 0-14.091-6.309-14.091-14.091v-47.819c.001-7.781 6.31-14.09 14.092-14.09h59.819c7.781 0 14.09 6.309 14.09 14.091v47.819c0 7.781-6.309 14.09-14.091 14.09z" fill="#6b4f5b"/><path d="m243.91 170h-59.82c-9.975 0-18.09-8.115-18.09-18.09v-47.82c0-9.975 8.115-18.09 18.09-18.09h59.82c9.975 0 18.09 8.115 18.09 18.09v47.82c0 9.975-8.115 18.09-18.09 18.09zm-59.82-76c-5.564 0-10.09 4.525-10.09 10.09v47.82c0 5.564 4.525 10.09 10.09 10.09h59.82c5.564 0 10.09-4.525 10.09-10.09v-47.82c0-5.564-4.525-10.09-10.09-10.09z" fill="#4c241d"/><path d="m235.843 154h-31.686c-5.61 0-10.157-4.547-10.157-10.157v-31.686c0-5.61 4.547-10.157 10.157-10.157h31.686c5.61 0 10.157 4.547 10.157 10.157v31.686c0 5.61-4.547 10.157-10.157 10.157z" fill="#fff"/><path d="m235.844 158h-31.688c-7.806 0-14.156-6.35-14.156-14.156v-31.688c0-7.806 6.35-14.156 14.156-14.156h31.688c7.806 0 14.156 6.35 14.156 14.156v31.688c0 7.806-6.35 14.156-14.156 14.156zm-31.688-52c-3.395 0-6.156 2.762-6.156 6.156v31.688c0 3.395 2.762 6.156 6.156 6.156h31.688c3.395 0 6.156-2.762 6.156-6.156v-31.688c0-3.395-2.762-6.156-6.156-6.156z" fill="#4c241d"/><path d="m210 118h20v20h-20z" fill="#f53e28"/><path d="m230 142h-20c-2.209 0-4-1.791-4-4v-20c0-2.209 1.791-4 4-4h20c2.209 0 4 1.791 4 4v20c0 2.209-1.791 4-4 4zm-16-8h12v-12h-12z" fill="#4c241d"/><path d="m199.909 210h-59.819c-7.782 0-14.091-6.309-14.091-14.091v-47.819c0-7.782 6.309-14.091 14.091-14.091h59.819c7.782 0 14.091 6.309 14.091 14.091v47.819c0 7.782-6.309 14.091-14.091 14.091z" fill="#6b4f5b"/><path d="m199.91 214h-59.82c-9.975 0-18.09-8.115-18.09-18.09v-47.82c0-9.975 8.115-18.09 18.09-18.09h59.82c9.975 0 18.09 8.115 18.09 18.09v47.82c0 9.975-8.115 18.09-18.09 18.09zm-59.82-76c-5.564 0-10.09 4.525-10.09 10.09v47.82c0 5.564 4.525 10.09 10.09 10.09h59.82c5.564 0 10.09-4.525 10.09-10.09v-47.82c0-5.564-4.525-10.09-10.09-10.09z" fill="#4c241d"/><path d="m191.843 198h-31.686c-5.61 0-10.157-4.547-10.157-10.157v-31.686c0-5.61 4.547-10.157 10.157-10.157h31.686c5.61 0 10.157 4.547 10.157 10.157v31.686c0 5.61-4.547 10.157-10.157 10.157z" fill="#fff"/><path d="m191.844 202h-31.688c-7.806 0-14.156-6.35-14.156-14.156v-31.688c0-7.807 6.35-14.156 14.156-14.156h31.688c7.807 0 14.156 6.35 14.156 14.156v31.688c0 7.806-6.35 14.156-14.156 14.156zm-31.688-52c-3.395 0-6.156 2.762-6.156 6.156v31.688c0 3.395 2.762 6.156 6.156 6.156h31.688c3.395 0 6.156-2.762 6.156-6.156v-31.688c0-3.395-2.762-6.156-6.156-6.156z" fill="#4c241d"/><path d="m166 162h20v20h-20z" fill="#fc8c29"/><path d="m186 186h-20c-2.209 0-4-1.791-4-4v-20c0-2.209 1.791-4 4-4h20c2.209 0 4 1.791 4 4v20c0 2.209-1.791 4-4 4zm-16-8h12v-12h-12z" fill="#4c241d"/><path d="m151.909 258h-59.818c-7.782 0-14.091-6.309-14.091-14.091v-47.819c0-7.781 6.309-14.09 14.091-14.09h59.819c7.782 0 14.091 6.309 14.091 14.091v47.819c-.001 7.781-6.31 14.09-14.092 14.09z" fill="#6b4f5b"/><path d="m151.91 262h-59.82c-9.975 0-18.09-8.115-18.09-18.09v-47.82c0-9.975 8.115-18.09 18.09-18.09h59.82c9.975 0 18.09 8.115 18.09 18.09v47.82c0 9.975-8.115 18.09-18.09 18.09zm-59.82-76c-5.565 0-10.09 4.525-10.09 10.09v47.82c0 5.564 4.525 10.09 10.09 10.09h59.82c5.564 0 10.09-4.525 10.09-10.09v-47.82c0-5.564-4.525-10.09-10.09-10.09z" fill="#4c241d"/><path d="m143.843 246h-31.686c-5.61 0-10.157-4.547-10.157-10.157v-31.686c0-5.61 4.547-10.157 10.157-10.157h31.686c5.61 0 10.157 4.547 10.157 10.157v31.686c0 5.61-4.547 10.157-10.157 10.157z" fill="#fff"/><path d="m143.844 250h-31.688c-7.806 0-14.156-6.35-14.156-14.156v-31.688c0-7.806 6.35-14.156 14.156-14.156h31.688c7.807 0 14.156 6.35 14.156 14.156v31.688c0 7.806-6.35 14.156-14.156 14.156zm-31.688-52c-3.395 0-6.156 2.762-6.156 6.156v31.688c0 3.395 2.762 6.156 6.156 6.156h31.688c3.395 0 6.156-2.762 6.156-6.156v-31.688c0-3.395-2.762-6.156-6.156-6.156z" fill="#4c241d"/><path d="m118 210h20v20h-20z" fill="#a9ba5a"/><path d="m138 234h-20c-2.209 0-4-1.791-4-4v-20c0-2.209 1.791-4 4-4h20c2.209 0 4 1.791 4 4v20c0 2.209-1.791 4-4 4zm-16-8h12v-12h-12z" fill="#4c241d"/></svg>