<svg id="pizza_x5F_slices" enable-background="new 0 0 300 300" height="512" viewBox="0 0 300 300" width="512" xmlns="http://www.w3.org/2000/svg"><circle cx="115.354" cy="117.354" fill="#edebdc" r="90"/><path d="m69.354 67.354h188v188h-188z" fill="#6b4f5b"/><path d="m257.354 259.354h-188c-2.211 0-4-1.791-4-4v-188c0-2.209 1.789-4 4-4h188c2.211 0 4 1.791 4 4v188c0 2.208-1.79 4-4 4zm-184-8h180v-180h-180z" fill="#4c241d"/><path d="m85.072 63.019-7.666-11.943c-23.579 15.167-40.829 39.298-46.921 67.595l13.874 3.001c5.286-24.553 20.253-45.493 40.713-58.653z" fill="#bf7e68"/><path d="m44.357 125.672c-.281 0-.566-.029-.844-.09l-13.871-3c-2.16-.467-3.531-2.594-3.066-4.752 6.16-28.631 23.898-54.188 48.664-70.117.895-.578 1.98-.781 3.016-.545 1.035.225 1.941.854 2.516 1.748l7.668 11.943c1.191 1.857.652 4.33-1.203 5.523-19.832 12.756-34.035 33.215-38.969 56.131-.223 1.037-.852 1.943-1.742 2.52-.653.42-1.407.639-2.169.639zm-9.043-10.049 6.059 1.311c5.754-22.109 19.445-41.83 38.219-55.045l-3.348-5.217c-20.152 14.113-34.828 35.252-40.93 58.951z" fill="#4c241d"/><path d="m163.354 68.255c6.63 0 13.094.705 19.331 2.023l2.947-13.886c-7.188-1.519-14.638-2.331-22.278-2.331-21.353 0-41.231 6.263-57.948 17.016l7.666 11.943c14.505-9.331 31.753-14.765 50.282-14.765z" fill="#bf7e68"/><path d="m113.072 87.02c-.285 0-.57-.029-.852-.092-1.035-.225-1.941-.854-2.516-1.748l-7.668-11.943c-1.191-1.857-.652-4.33 1.203-5.525 17.957-11.547 38.742-17.65 60.113-17.65 7.738 0 15.516.814 23.105 2.418 1.039.221 1.945.844 2.523 1.732.582.891.781 1.973.562 3.012l-2.942 13.883c-.457 2.16-2.559 3.553-4.742 3.084-6.082-1.285-12.309-1.938-18.504-1.938-17.109 0-33.746 4.887-48.117 14.129-.653.421-1.403.638-2.165.638zm-2.101-14.676 3.348 5.215c19.512-11.445 42.781-15.74 65.266-11.941l1.289-6.062c-24.075-4.13-49.017.467-69.903 12.788z" fill="#4c241d"/><path d="m241.523 110.816 11.918-7.705c-15.25-23.54-39.456-40.73-67.81-46.719l-2.947 13.886c24.604 5.196 45.607 20.112 58.839 40.538z" fill="#bf7e68"/><path d="m241.529 114.816c-1.312 0-2.594-.643-3.359-1.824-12.836-19.811-33.359-33.953-56.312-38.801-1.039-.221-1.945-.844-2.523-1.732-.582-.891-.781-1.973-.562-3.012l2.945-13.885c.461-2.156 2.566-3.537 4.742-3.084 28.672 6.057 54.309 23.717 70.34 48.457.578.891.777 1.975.555 3.014-.223 1.037-.848 1.945-1.738 2.521l-11.918 7.705c-.674.434-1.428.641-2.17.641zm-54.117-47.541c22.152 5.672 41.934 19.305 55.227 38.057l5.203-3.363c-14.195-20.131-35.406-34.744-59.145-40.758z" fill="#4c241d"/><path d="m256.452 161.354c0 6.755-.737 13.335-2.104 19.681l13.874 3.001c1.574-7.314 2.424-14.897 2.424-22.682 0-21.479-6.335-41.466-17.205-58.243l-11.918 7.705c9.432 14.558 14.929 31.901 14.929 50.538z" fill="#bf7e68"/><path d="m268.221 188.035c-.281 0-.566-.029-.844-.09l-13.871-3c-2.16-.467-3.531-2.594-3.066-4.752 1.336-6.197 2.012-12.535 2.012-18.84 0-17.215-4.938-33.938-14.281-48.363-.578-.891-.777-1.975-.555-3.012s.848-1.945 1.738-2.521l11.918-7.705c1.855-1.201 4.328-.668 5.527 1.186 11.676 18.023 17.848 38.916 17.848 60.416 0 7.873-.848 15.787-2.516 23.525-.223 1.037-.852 1.943-1.742 2.518-.653.419-1.407.638-2.168.638zm-9.2-10.082 6.059 1.311c1.039-5.924 1.566-11.93 1.566-17.91 0-18.617-4.984-36.742-14.453-52.672l-5.203 3.365c8.816 14.922 13.461 31.885 13.461 49.307 0 5.542-.48 11.111-1.43 16.599z" fill="#4c241d"/><path d="m70.255 161.354c0-6.755.737-13.335 2.104-19.681l-13.874-3.001c-1.575 7.314-2.424 14.897-2.424 22.682 0 21.478 6.335 41.465 17.205 58.242l11.918-7.705c-9.432-14.558-14.929-31.901-14.929-50.537z" fill="#bf7e68"/><path d="m73.268 223.596c-1.312 0-2.594-.643-3.359-1.826-11.676-18.023-17.848-38.916-17.848-60.416 0-7.873.848-15.787 2.516-23.525.223-1.037.852-1.943 1.742-2.518.895-.576 1.984-.773 3.012-.549l13.871 3c2.16.467 3.531 2.592 3.066 4.75-1.336 6.215-2.012 12.555-2.012 18.842 0 17.215 4.938 33.938 14.281 48.363.578.891.777 1.975.555 3.012s-.848 1.945-1.738 2.521l-11.918 7.705c-.672.434-1.426.641-2.168.641zm-11.641-80.153c-1.039 5.924-1.566 11.93-1.566 17.91 0 18.617 4.984 36.742 14.453 52.672l5.203-3.365c-8.816-14.922-13.461-31.885-13.461-49.307 0-5.531.48-11.098 1.43-16.6z" fill="#4c241d"/><path d="m85.184 211.891-11.918 7.705c15.25 23.54 39.456 40.73 67.81 46.719l2.947-13.886c-24.604-5.196-45.606-20.112-58.839-40.538z" fill="#bf7e68"/><path d="m141.08 270.314c-.273 0-.551-.027-.832-.086-28.672-6.057-54.309-23.717-70.34-48.457-.578-.891-.777-1.975-.555-3.014.223-1.037.848-1.945 1.738-2.521l11.918-7.705c1.855-1.201 4.328-.668 5.527 1.184 12.836 19.811 33.359 33.953 56.312 38.801 1.039.221 1.945.844 2.523 1.732.582.891.781 1.973.562 3.012l-2.945 13.885c-.396 1.88-2.06 3.169-3.908 3.169zm-62.215-49.576c14.195 20.131 35.406 34.744 59.145 40.758l1.285-6.064c-22.148-5.672-41.934-19.305-55.227-38.059z" fill="#4c241d"/><path d="m268.223 184.036-13.874-3.001c-5.286 24.553-20.254 45.493-40.713 58.653l7.667 11.943c23.577-15.167 40.827-39.298 46.92-67.595z" fill="#bf7e68"/><path d="m221.303 255.631c-.285 0-.57-.029-.852-.092-1.035-.225-1.941-.854-2.516-1.748l-7.668-11.943c-1.191-1.857-.652-4.33 1.203-5.523 19.832-12.756 34.035-33.215 38.969-56.131.223-1.037.852-1.943 1.742-2.52s1.98-.773 3.012-.549l13.871 3c2.16.467 3.531 2.594 3.066 4.752-6.16 28.629-23.898 54.186-48.664 70.117-.648.42-1.402.637-2.163.637zm-2.188-14.813 3.348 5.217c20.152-14.115 34.828-35.254 40.93-58.951l-6.059-1.311c-5.754 22.11-19.445 41.831-38.219 55.045z" fill="#4c241d"/><path d="m163.354 254.452c-6.63 0-13.094-.705-19.331-2.022l-2.947 13.886c7.188 1.519 14.638 2.331 22.278 2.331 21.353 0 41.231-6.263 57.948-17.016l-7.667-11.943c-14.505 9.33-31.753 14.764-50.281 14.764z" fill="#bf7e68"/><path d="m163.354 272.646c-7.738 0-15.516-.814-23.105-2.418-1.039-.221-1.945-.844-2.523-1.732-.582-.891-.781-1.973-.562-3.012l2.945-13.885c.457-2.158 2.574-3.525 4.742-3.084 6.074 1.285 12.301 1.936 18.504 1.936 17.109 0 33.75-4.885 48.117-14.127.895-.578 1.98-.775 3.016-.545 1.035.225 1.941.854 2.516 1.748l7.668 11.943c1.191 1.857.652 4.33-1.203 5.525-17.959 11.548-38.744 17.651-60.115 17.651zm-17.52-9.494c24.074 4.127 49.016-.469 69.902-12.789l-3.348-5.215c-19.516 11.447-42.809 15.729-65.266 11.941z" fill="#4c241d"/><path d="m163.354 161.354v-.001z" fill="#ffce56"/><path d="m163.432 165.354c-2.207 0-4.02-1.791-4.02-4s1.773-4 3.98-4h.039c2.211 0 4 1.791 4 4s-1.788 4-3.999 4z" fill="#4c241d"/><path d="m135.354 141.354-50.282-78.335c-20.459 13.16-35.427 34.099-40.713 58.653z" fill="#ffce56"/><path d="m135.354 145.354c-.281 0-.562-.029-.844-.09l-90.996-19.682c-2.16-.467-3.531-2.594-3.066-4.752 5.375-24.98 20.852-47.277 42.461-61.174.895-.58 1.977-.779 3.016-.545 1.035.225 1.941.854 2.516 1.748l50.281 78.334c.871 1.359.84 3.111-.082 4.439-.759 1.093-1.994 1.722-3.286 1.722zm-86.153-26.727 77.582 16.781-42.863-66.781c-17.004 12.066-29.422 29.949-34.719 50z" fill="#4c241d"/><path d="m163.354 161.353 19.331-91.076c-6.237-1.318-12.701-2.023-19.331-2.023-18.528 0-35.776 5.435-50.282 14.765z" fill="#ffce56"/><path d="m163.354 165.354c-1.348 0-2.621-.68-3.367-1.84l-50.282-78.334c-1.191-1.857-.652-4.33 1.203-5.523 15.664-10.076 33.797-15.402 52.445-15.402 6.754 0 13.535.709 20.16 2.109 1.039.221 1.945.844 2.523 1.732.582.891.781 1.975.562 3.012l-19.332 91.076c-.34 1.588-1.598 2.812-3.195 3.105-.237.043-.479.065-.717.065zm-44.708-81.057 42.816 66.705 16.461-77.551c-20.441-3.369-41.527.522-59.277 10.846z" fill="#4c241d"/><path d="" fill="#ffce56"/><path d="m163.432 165.354c-2.207 0-4.02-1.791-4.02-4s1.773-4 3.98-4h.039c2.211 0 4 1.791 4 4s-1.788 4-3.999 4z" fill="#4c241d"/><path d="m241.523 110.816c-13.233-20.426-34.235-35.342-58.839-40.539l-19.331 91.076z" fill="#ffce56"/><path d="m163.354 165.354c-.793 0-1.586-.236-2.27-.705-1.332-.918-1.98-2.545-1.645-4.125l19.332-91.076c.465-2.158 2.574-3.529 4.742-3.084 25.02 5.285 47.387 20.695 61.367 42.277.578.893.777 1.977.555 3.014s-.848 1.945-1.738 2.521l-78.172 50.537c-.66.428-1.418.641-2.171.641zm22.394-90.247-16.484 77.662 66.652-43.09c-12.137-16.98-30.082-29.347-50.168-34.572z" fill="#4c241d"/><path d="" fill="#ffce56"/><path d="m163.432 165.354c-2.207 0-4.02-1.791-4.02-4s1.773-4 3.98-4h.039c2.211 0 4 1.791 4 4s-1.788 4-3.999 4z" fill="#4c241d"/><path d="m72.358 141.672c-1.366 6.346-2.104 12.927-2.104 19.681 0 18.637 5.498 35.98 14.929 50.537l78.17-50.537z" fill="#ffce56"/><path d="m85.186 215.891c-1.312 0-2.594-.643-3.359-1.826-10.188-15.723-15.57-33.949-15.57-52.711 0-6.852.738-13.756 2.191-20.521.223-1.039.848-1.945 1.742-2.521.895-.574 1.98-.775 3.012-.549l90.996 19.682c1.582.342 2.801 1.602 3.09 3.191.293 1.592-.402 3.199-1.762 4.078l-78.172 50.536c-.672.434-1.426.641-2.168.641zm-9.672-69.444c-.836 4.943-1.258 9.941-1.258 14.906 0 15.877 4.203 31.336 12.184 44.959l66.648-43.086z" fill="#4c241d"/><path d="m241.523 110.816-78.17 50.537 90.995 19.681c1.367-6.346 2.104-12.927 2.104-19.681 0-18.636-5.497-35.979-14.929-50.537z" fill="#ffce56"/><path d="m254.35 185.035c-.281 0-.566-.029-.844-.09l-90.996-19.682c-1.582-.342-2.801-1.602-3.09-3.191-.293-1.592.402-3.199 1.762-4.078l78.172-50.537c1.855-1.201 4.328-.668 5.527 1.186 10.188 15.723 15.57 33.949 15.57 52.711 0 6.869-.738 13.775-2.191 20.523-.223 1.039-.852 1.945-1.742 2.52-.653.419-1.407.638-2.168.638zm-80.731-25.555 77.574 16.779c.836-4.932 1.258-9.93 1.258-14.906 0-15.877-4.203-31.336-12.184-44.959z" fill="#4c241d"/><path d="m213.635 239.688c20.459-13.16 35.427-34.099 40.713-58.653l-90.995-19.681z" fill="#ffce56"/><path d="m213.635 243.688c-.285 0-.57-.029-.852-.092-1.035-.225-1.941-.854-2.516-1.748l-50.281-78.334c-.871-1.359-.84-3.111.082-4.439.922-1.33 2.547-1.977 4.129-1.631l90.996 19.682c2.16.467 3.531 2.594 3.066 4.752-5.375 24.98-20.852 47.277-42.461 61.174-.652.419-1.402.636-2.163.636zm-41.711-76.389 42.863 66.781c17.004-12.066 29.422-29.949 34.719-50z" fill="#4c241d"/><path d="m163.354 161.354-19.331 91.076c6.237 1.318 12.701 2.022 19.331 2.022 18.528 0 35.776-5.435 50.282-14.765z" fill="#ffce56"/><path d="m163.354 258.451c-6.758 0-13.539-.709-20.16-2.107-1.039-.221-1.945-.844-2.523-1.732-.582-.891-.781-1.975-.562-3.012l19.332-91.076c.34-1.588 1.598-2.812 3.195-3.105 1.59-.285 3.207.412 4.086 1.775l50.281 78.334c1.191 1.857.652 4.33-1.203 5.523-15.661 10.076-33.798 15.4-52.446 15.4zm-14.571-9.195c20.414 3.369 41.527-.518 59.277-10.846l-42.816-66.705z" fill="#4c241d"/><path d="m163.354 161.354-78.17 50.537c13.233 20.426 34.235 35.342 58.839 40.539z" fill="#ffce56"/><path d="m144.025 256.43c-.273 0-.551-.027-.832-.086-25.016-5.285-47.383-20.695-61.367-42.277-.578-.893-.777-1.975-.555-3.014.223-1.037.848-1.945 1.738-2.521l78.172-50.537c1.355-.877 3.109-.848 4.441.064 1.332.918 1.98 2.545 1.645 4.125l-19.332 91.076c-.402 1.881-2.062 3.17-3.91 3.17zm-53.234-43.405c12.137 16.982 30.082 29.35 50.168 34.574l16.484-77.662z" fill="#4c241d"/><circle cx="203.354" cy="105.354" fill="#f53e28" r="10"/><path d="m203.354 119.354c-7.719 0-14-6.281-14-14s6.281-14 14-14 14 6.281 14 14-6.282 14-14 14zm0-20c-3.309 0-6 2.691-6 6s2.691 6 6 6 6-2.691 6-6-2.692-6-6-6z" fill="#4c241d"/><path d="m139.354 104.804c-3.804 0-7.172 1.729-9.473 4.402l12.936 20.152c5.234-1.511 9.087-6.283 9.087-12.005-.001-6.93-5.62-12.549-12.55-12.549z" fill="#f53e28"/><path d="m142.814 133.357c-1.336 0-2.617-.672-3.367-1.84l-12.934-20.152c-.953-1.488-.82-3.43.336-4.77 3.168-3.68 7.727-5.791 12.504-5.791 9.125 0 16.551 7.424 16.551 16.549 0 7.295-4.926 13.812-11.98 15.848-.367.106-.742.156-1.11.156zm-7.699-23.4 9.184 14.307c2.207-1.57 3.605-4.131 3.605-6.91 0-4.713-3.836-8.549-8.551-8.549-1.515 0-2.96.398-4.238 1.152z" fill="#4c241d"/><circle cx="219.354" cy="201.354" fill="#f53e28" r="10"/><path d="m219.354 215.354c-7.719 0-14-6.281-14-14s6.281-14 14-14 14 6.281 14 14-6.282 14-14 14zm0-20c-3.309 0-6 2.691-6 6s2.691 6 6 6 6-2.691 6-6-2.692-6-6-6z" fill="#4c241d"/><path d="m103.354 110.047c3.678 0 6.963-1.588 9.281-4.088l-13.23-20.609c-5.064 1.667-8.745 6.381-8.745 12.004 0 7.01 5.683 12.693 12.694 12.693z" fill="#f53e28"/><path d="m103.354 114.047c-9.207 0-16.695-7.488-16.695-16.693 0-7.188 4.621-13.537 11.496-15.803 1.719-.576 3.625.102 4.617 1.639l13.23 20.609c.984 1.535.805 3.543-.434 4.881-3.214 3.461-7.55 5.367-12.214 5.367zm-5.356-23.485c-2.07 1.607-3.34 4.086-3.34 6.791 0 4.793 3.902 8.693 8.695 8.693 1.402 0 2.746-.336 3.961-.973z" fill="#4c241d"/><circle cx="127.354" cy="213.354" fill="#f53e28" r="10"/><g fill="#4c241d"><path d="m127.354 227.354c-7.719 0-14-6.281-14-14s6.281-14 14-14 14 6.281 14 14-6.282 14-14 14zm0-20c-3.309 0-6 2.691-6 6s2.691 6 6 6 6-2.691 6-6-2.692-6-6-6z"/><path d="m213.357 151.354c-1.219 0-2.418-.553-3.203-1.6l-4.801-6.4c-3.758-5.01-9.738-8-16-8-2.211 0-4-1.791-4-4s1.789-4 4-4c8.766 0 17.141 4.188 22.398 11.199l4.801 6.4c1.328 1.768.969 4.275-.801 5.6-.718.541-1.558.801-2.394.801z"/><path d="m173.354 207.354c-1.023 0-2.047-.391-2.828-1.172-1.562-1.562-1.562-4.094 0-5.656l4.785-4.785c2.996-2.998 7.242-4.215 11.383-3.246 1.289.299 2.676-.039 3.684-.912l8.355-7.25c1.668-1.445 4.195-1.271 5.641.4 1.449 1.668 1.27 4.193-.398 5.643l-8.352 7.248c-2.938 2.553-6.969 3.547-10.75 2.66-1.43-.334-2.879.086-3.906 1.115l-4.785 4.783c-.783.781-1.806 1.172-2.829 1.172z"/><path d="m142.189 196.908c-.414 0-.836-.066-1.25-.203l-6.641-2.188c-4.762-1.566-8.176-5.623-8.902-10.582-.285-1.945-1.621-3.533-3.488-4.148l-6.641-2.188c-2.102-.691-3.242-2.951-2.551-5.051.691-2.098 2.957-3.238 5.051-2.547l6.641 2.188c4.762 1.566 8.176 5.623 8.902 10.582.285 1.945 1.621 3.533 3.488 4.148l6.641 2.188c2.102.691 3.242 2.951 2.551 5.051-.554 1.682-2.121 2.75-3.801 2.75z"/></g><path d="m240.112 149.699c4.709 6.132 3.768 14.758 3.768 14.758s-8.576-1.317-13.285-7.45c-4.709-6.132-3.768-14.758-3.768-14.758s8.576 1.318 13.285 7.45z" fill="#a9ba5a"/><path d="m243.881 168.457c-.203 0-.406-.016-.605-.047-.418-.062-10.23-1.645-15.852-8.967-5.625-7.322-4.621-17.211-4.574-17.627.117-1.086.676-2.074 1.539-2.738.867-.666 1.992-.939 3.043-.781.418.062 10.23 1.645 15.852 8.965 5.625 7.324 4.621 17.213 4.574 17.629-.117 1.086-.676 2.074-1.539 2.738-.704.541-1.563.828-2.438.828zm-12.84-20.719c.355 2.199 1.121 4.744 2.727 6.832 1.602 2.088 3.863 3.486 5.898 4.398-.355-2.199-1.121-4.744-2.727-6.832 0-.002 0-.002 0-.002-1.601-2.085-3.863-3.484-5.898-4.396z" fill="#4c241d"/><path d="m160.112 85.699c4.709 6.132 3.768 14.758 3.768 14.758s-8.576-1.317-13.285-7.45c-4.709-6.132-3.768-14.758-3.768-14.758s8.576 1.318 13.285 7.45z" fill="#a9ba5a"/><path d="m163.881 104.457c-.203 0-.406-.016-.605-.047-.418-.062-10.23-1.645-15.852-8.967-5.625-7.322-4.621-17.211-4.574-17.627.117-1.086.676-2.074 1.539-2.738.867-.666 1.992-.943 3.043-.781.418.062 10.23 1.645 15.852 8.965 5.625 7.324 4.621 17.213 4.574 17.629-.117 1.086-.676 2.074-1.539 2.738-.704.541-1.563.828-2.438.828zm-12.84-20.719c.355 2.199 1.121 4.744 2.727 6.832 1.602 2.088 3.863 3.486 5.898 4.398-.355-2.199-1.121-4.744-2.727-6.832 0-.002 0-.002 0-.002-1.601-2.085-3.863-3.484-5.898-4.396z" fill="#4c241d"/><path d="m80.112 105.699c4.709 6.132 3.768 14.758 3.768 14.758s-8.576-1.317-13.285-7.45c-4.709-6.132-3.768-14.758-3.768-14.758s8.576 1.318 13.285 7.45z" fill="#a9ba5a"/><path d="m83.881 124.457c-.203 0-.406-.016-.605-.047-.418-.062-10.23-1.645-15.852-8.967-5.625-7.322-4.621-17.211-4.574-17.627.117-1.086.676-2.074 1.539-2.738.867-.666 1.992-.945 3.043-.781.418.062 10.23 1.645 15.852 8.965 5.625 7.324 4.621 17.213 4.574 17.629-.117 1.086-.676 2.074-1.539 2.738-.704.541-1.563.828-2.438.828zm-12.84-20.719c.355 2.199 1.121 4.744 2.727 6.832 1.602 2.088 3.863 3.486 5.898 4.398-.355-2.199-1.121-4.744-2.727-6.832 0-.002 0-.002 0-.002-1.601-2.085-3.863-3.484-5.898-4.396z" fill="#4c241d"/><path d="m92.127 178.412c-6.519-4.158-8.577-12.587-8.577-12.587s8.511-1.688 15.03 2.47 8.577 12.587 8.577 12.587-8.511 1.688-15.03-2.47z" fill="#a9ba5a"/><path d="m103.014 185.215c-3.617 0-8.645-.627-13.039-3.43-7.781-4.965-10.211-14.604-10.312-15.012-.258-1.061-.074-2.18.516-3.1.586-.92 1.523-1.561 2.594-1.773.414-.08 10.176-1.943 17.961 3.021 7.781 4.965 10.211 14.604 10.312 15.012.258 1.061.074 2.18-.516 3.1-.586.92-1.523 1.561-2.594 1.773-.18.036-2.129.409-4.922.409zm-13.629-15.668c1.082 1.945 2.672 4.076 4.895 5.492 2.215 1.416 4.82 1.957 7.043 2.121-1.082-1.945-2.672-4.076-4.895-5.492-2.215-1.416-4.821-1.957-7.043-2.121z" fill="#4c241d"/><path d="m176.127 234.412c-6.519-4.158-8.577-12.587-8.577-12.587s8.511-1.688 15.03 2.47 8.577 12.587 8.577 12.587-8.511 1.688-15.03-2.47z" fill="#a9ba5a"/><path d="m187.014 241.215c-3.617 0-8.645-.627-13.039-3.43-7.781-4.965-10.211-14.604-10.312-15.012-.258-1.061-.074-2.18.516-3.1.586-.92 1.523-1.561 2.594-1.773.414-.078 10.176-1.941 17.961 3.021 7.781 4.965 10.211 14.604 10.312 15.012.258 1.061.074 2.18-.516 3.1-.586.92-1.523 1.561-2.594 1.773-.18.036-2.129.409-4.922.409zm-13.629-15.668c1.082 1.945 2.672 4.076 4.895 5.492 2.215 1.416 4.82 1.957 7.043 2.121-1.082-1.945-2.672-4.076-4.895-5.492-2.215-1.416-4.821-1.957-7.043-2.121z" fill="#4c241d"/></svg>